<?xml version="1.0" encoding="UTF-8" standalone="no"?><!DOCTYPE svg PUBLIC "-//W3C//DTD SVG 1.1//EN" "http://www.w3.org/Graphics/SVG/1.1/DTD/svg11.dtd"><svg width="100%" height="100%" viewBox="0 0 607 607" version="1.1" xmlns="http://www.w3.org/2000/svg" xmlns:xlink="http://www.w3.org/1999/xlink" xml:space="preserve" xmlns:serif="http://www.serif.com/" style="fill-rule:evenodd;clip-rule:evenodd;stroke-linejoin:round;stroke-miterlimit:2;"><g><g id="g4284"><g id="g2733"><g id="g2468"><path id="path1956" d="M168.63,601.063c1.554,-0.594 3.297,0.186 3.891,1.739c0.594,1.554 -0.186,3.298 -1.74,3.891c-1.554,0.594 -3.297,-0.186 -3.89,-1.74c-0.594,-1.553 0.186,-3.297 1.739,-3.89Z" style="fill:#002eff;"/><path id="path1958" d="M399.76,511.69c2.072,-0.791 4.397,0.248 5.188,2.32c0.792,2.072 -0.248,4.396 -2.319,5.188c-2.072,0.791 -4.397,-0.249 -5.188,-2.321c-0.792,-2.071 0.248,-4.395 2.319,-5.187Z" style="fill:#002eff;"/><path id="path1960" d="M284.293,556.633c1.671,-0.639 3.547,0.2 4.185,1.871c0.639,1.671 -0.199,3.547 -1.871,4.185c-1.671,0.639 -3.547,-0.2 -4.185,-1.872c-0.638,-1.671 0.2,-3.546 1.871,-4.184Z" style="fill:#002eff;"/><path id="path1962" d="M515.73,468.061c1.747,-0.667 3.707,0.209 4.374,1.956c0.667,1.747 -0.209,3.708 -1.956,4.375c-1.746,0.667 -3.706,-0.209 -4.374,-1.957c-0.667,-1.746 0.209,-3.706 1.956,-4.374Z" style="fill:#002eff;"/><path id="path1964" d="M197.599,590.094c1.507,-0.575 3.197,0.18 3.772,1.687c0.576,1.506 -0.18,3.196 -1.686,3.772c-1.507,0.575 -3.197,-0.18 -3.773,-1.687c-0.575,-1.506 0.181,-3.196 1.687,-3.772Z" style="fill:#002eff;"/><path id="path1966" d="M428.692,500.625c2.078,-0.794 4.41,0.248 5.203,2.326c0.794,2.077 -0.249,4.409 -2.326,5.202c-2.078,0.794 -4.409,-0.248 -5.203,-2.326c-0.794,-2.077 0.249,-4.408 2.326,-5.202Z" style="fill:#002eff;"/><path id="path1968" d="M313.164,545.407c1.766,-0.675 3.747,0.21 4.422,1.977c0.675,1.766 -0.211,3.748 -1.977,4.422c-1.766,0.675 -3.748,-0.211 -4.423,-1.977c-0.674,-1.766 0.211,-3.748 1.978,-4.422Z" style="fill:#002eff;"/><path id="path1970" d="M544.74,457.2c1.64,-0.626 3.48,0.197 4.106,1.837c0.627,1.64 -0.195,3.48 -1.836,4.106c-1.639,0.627 -3.48,-0.196 -4.106,-1.836c-0.627,-1.64 0.196,-3.48 1.836,-4.107Z" style="fill:#002eff;"/><path id="path1972" d="M226.524,579.011c1.522,-0.582 3.23,0.182 3.812,1.705c0.581,1.522 -0.183,3.23 -1.704,3.811c-1.523,0.582 -3.231,-0.182 -3.812,-1.704c-0.582,-1.523 0.182,-3.231 1.704,-3.812Z" style="fill:#002eff;"/><path id="path1974" d="M457.675,489.69c2.011,-0.769 4.268,0.241 5.037,2.253c0.768,2.011 -0.241,4.268 -2.253,5.037c-2.012,0.768 -4.269,-0.241 -5.037,-2.253c-0.769,-2.012 0.241,-4.269 2.253,-5.037Z" style="fill:#002eff;"/><path id="path1976" d="M342.023,534.15c1.877,-0.717 3.984,0.225 4.702,2.103c0.717,1.877 -0.225,3.984 -2.103,4.701c-1.877,0.717 -3.984,-0.225 -4.701,-2.102c-0.718,-1.878 0.224,-3.985 2.102,-4.702Z" style="fill:#002eff;"/><path id="path1978" d="M573.705,446.222c1.599,-0.61 3.392,0.192 4.002,1.789c0.611,1.599 -0.191,3.392 -1.79,4.002c-1.597,0.611 -3.39,-0.191 -4.001,-1.789c-0.61,-1.598 0.192,-3.391 1.789,-4.002Z" style="fill:#002eff;"/><path id="path1980" d="M255.417,567.843c1.585,-0.606 3.363,0.19 3.969,1.775c0.605,1.585 -0.19,3.364 -1.775,3.969c-1.585,0.606 -3.364,-0.19 -3.969,-1.775c-0.606,-1.585 0.189,-3.364 1.775,-3.969Z" style="fill:#002eff;"/><path id="path1982" d="M486.698,478.864c1.885,-0.72 4.001,0.226 4.721,2.111c0.721,1.886 -0.226,4.002 -2.111,4.722c-1.886,0.721 -4.002,-0.226 -4.722,-2.111c-0.721,-1.886 0.226,-4.002 2.112,-4.722Z" style="fill:#002eff;"/><path id="path1984" d="M370.88,522.89c1.992,-0.76 4.225,0.239 4.986,2.23c0.761,1.991 -0.238,4.225 -2.23,4.985c-1.99,0.761 -4.224,-0.238 -4.985,-2.229c-0.76,-1.991 0.239,-4.225 2.229,-4.986Z" style="fill:#002eff;"/><path id="path1986" d="M602.615,435.099c1.636,-0.625 3.472,0.196 4.097,1.832c0.625,1.636 -0.196,3.472 -1.833,4.097c-1.635,0.625 -3.471,-0.196 -4.096,-1.833c-0.625,-1.635 0.196,-3.471 1.832,-4.096Z" style="fill:#002eff;"/><path id="path1988" d="M124.446,485.404c1.506,-0.576 3.196,0.18 3.772,1.687c0.575,1.506 -0.181,3.196 -1.687,3.771c-1.506,0.576 -3.196,-0.18 -3.772,-1.686c-0.575,-1.507 0.181,-3.197 1.687,-3.772Z" style="fill:#002eff;"/><path id="path1990" d="M355.324,395.371c2.389,-0.913 5.069,0.286 5.982,2.675c0.912,2.388 -0.287,5.068 -2.675,5.981c-2.389,0.913 -5.069,-0.286 -5.982,-2.674c-0.912,-2.39 0.287,-5.07 2.675,-5.982Z" style="fill:#002eff;"/><path id="path1992" d="M239.697,439.895c2.219,-0.848 4.709,0.266 5.557,2.485c0.847,2.219 -0.266,4.709 -2.485,5.557c-2.22,0.848 -4.71,-0.266 -5.558,-2.485c-0.847,-2.219 0.266,-4.709 2.486,-5.557Z" style="fill:#002eff;"/><path id="path1994" d="M471.153,351.375c2.266,-0.866 4.809,0.271 5.676,2.537c0.865,2.268 -0.271,4.811 -2.538,5.677c-2.266,0.866 -4.811,-0.272 -5.677,-2.538c-0.865,-2.267 0.272,-4.81 2.539,-5.676Z" style="fill:#002eff;"/><path id="path1996" d="M153.307,474.153c1.615,-0.617 3.427,0.194 4.044,1.808c0.616,1.615 -0.194,3.427 -1.808,4.044c-1.616,0.617 -3.427,-0.194 -4.044,-1.808c-0.617,-1.615 0.193,-3.427 1.808,-4.044Z" style="fill:#002eff;"/><path id="path1998" d="M384.25,384.29c2.403,-0.918 5.1,0.288 6.018,2.691c0.918,2.404 -0.288,5.1 -2.691,6.018c-2.403,0.918 -5.1,-0.288 -6.018,-2.69c-0.918,-2.404 0.288,-5.1 2.691,-6.019Z" style="fill:#002eff;"/><path id="path2000" d="M268.576,428.692c2.301,-0.88 4.884,0.275 5.763,2.576c0.879,2.303 -0.275,4.885 -2.577,5.764c-2.301,0.88 -4.884,-0.275 -5.763,-2.576c-0.879,-2.303 0.275,-4.885 2.577,-5.764Z" style="fill:#002eff;"/><path id="path2002" d="M500.168,340.527c2.152,-0.823 4.568,0.257 5.391,2.41c0.822,2.154 -0.257,4.569 -2.411,5.392c-2.153,0.822 -4.568,-0.258 -5.391,-2.411c-0.822,-2.153 0.257,-4.569 2.411,-5.391Z" style="fill:#002eff;"/><path id="path2004" d="M182.108,462.748c1.809,-0.691 3.839,0.216 4.53,2.025c0.691,1.809 -0.217,3.838 -2.025,4.53c-1.809,0.691 -3.839,-0.217 -4.53,-2.026c-0.691,-1.809 0.217,-3.838 2.025,-4.529Z" style="fill:#002eff;"/><path id="path2006" d="M413.19,373.248c2.397,-0.916 5.087,0.286 6.002,2.683c0.916,2.397 -0.287,5.087 -2.683,6.003c-2.398,0.915 -5.087,-0.288 -6.002,-2.685c-0.916,-2.396 0.287,-5.085 2.683,-6.001Z" style="fill:#002eff;"/><path id="path2008" d="M297.487,417.572c2.337,-0.893 4.96,0.28 5.854,2.617c0.893,2.339 -0.279,4.962 -2.618,5.855c-2.337,0.893 -4.961,-0.28 -5.854,-2.618c-0.893,-2.338 0.279,-4.961 2.618,-5.854Z" style="fill:#002eff;"/><path id="path2010" d="M529.172,329.652c2.054,-0.785 4.359,0.245 5.144,2.3c0.785,2.053 -0.246,4.358 -2.3,5.142c-2.054,0.785 -4.358,-0.245 -5.143,-2.299c-0.785,-2.054 0.245,-4.358 2.299,-5.143Z" style="fill:#002eff;"/><path id="path2012" d="M210.886,451.278c2.038,-0.779 4.325,0.243 5.103,2.282c0.779,2.038 -0.244,4.324 -2.281,5.103c-2.039,0.779 -4.326,-0.243 -5.104,-2.282c-0.779,-2.038 0.244,-4.324 2.282,-5.103Z" style="fill:#002eff;"/><path id="path2014" d="M442.16,362.279c2.349,-0.898 4.985,0.281 5.883,2.631c0.897,2.349 -0.282,4.985 -2.631,5.883c-2.35,0.897 -4.986,-0.281 -5.884,-2.631c-0.897,-2.349 0.282,-4.986 2.632,-5.883Z" style="fill:#002eff;"/><path id="path2016" d="M326.404,406.468c2.366,-0.904 5.02,0.282 5.923,2.648c0.904,2.365 -0.283,5.019 -2.649,5.923c-2.365,0.904 -5.019,-0.283 -5.922,-2.648c-0.904,-2.365 0.283,-5.019 2.648,-5.923Z" style="fill:#002eff;"/><path id="path2018" d="M558.144,318.689c2.003,-0.765 4.251,0.24 5.016,2.244c0.765,2.002 -0.24,4.25 -2.244,5.015c-2.002,0.765 -4.25,-0.24 -5.015,-2.243c-0.765,-2.003 0.24,-4.25 2.243,-5.016Z" style="fill:#002eff;"/><path id="path2020" d="M80.063,369.228c1.746,-0.667 3.703,0.209 4.37,1.953c0.666,1.746 -0.209,3.703 -1.954,4.37c-1.745,0.666 -3.702,-0.209 -4.369,-1.955c-0.667,-1.744 0.209,-3.702 1.953,-4.368Z" style="fill:#002eff;"/><path id="path2022" d="M311.081,279.56c2.426,-0.926 5.147,0.29 6.074,2.716c0.926,2.425 -0.291,5.147 -2.717,6.073c-2.424,0.927 -5.146,-0.29 -6.072,-2.716c-0.927,-2.425 0.29,-5.146 2.715,-6.073Z" style="fill:#002eff;"/><path id="path2024" d="M195.386,323.905c2.354,-0.9 4.997,0.282 5.897,2.637c0.899,2.355 -0.282,4.998 -2.637,5.897c-2.356,0.9 -4.998,-0.282 -5.898,-2.637c-0.9,-2.355 0.282,-4.998 2.638,-5.897Z" style="fill:#002eff;"/><path id="path2026" d="M426.854,235.416c2.385,-0.911 5.061,0.285 5.972,2.67c0.911,2.385 -0.286,5.061 -2.67,5.973c-2.386,0.911 -5.062,-0.285 -5.974,-2.671c-0.911,-2.385 0.286,-5.061 2.672,-5.972Z" style="fill:#002eff;"/><path id="path2028" d="M108.9,357.912c1.889,-0.721 4.009,0.226 4.73,2.115c0.722,1.889 -0.226,4.009 -2.115,4.73c-1.889,0.722 -4.009,-0.225 -4.73,-2.115c-0.722,-1.889 0.226,-4.008 2.115,-4.73Z" style="fill:#002eff;"/><path id="path2030" d="M340.017,268.505c2.426,-0.925 5.147,0.291 6.074,2.717c0.926,2.425 -0.291,5.146 -2.716,6.072c-2.425,0.927 -5.147,-0.289 -6.073,-2.715c-0.927,-2.425 0.291,-5.147 2.715,-6.074Z" style="fill:#002eff;"/><path id="path2032" d="M224.295,312.781c2.393,-0.914 5.079,0.286 5.993,2.68c0.915,2.393 -0.285,5.079 -2.679,5.993c-2.393,0.914 -5.08,-0.286 -5.994,-2.68c-0.914,-2.393 0.286,-5.078 2.68,-5.993Z" style="fill:#002eff;"/><path id="path2034" d="M455.854,224.528c2.292,-0.876 4.865,0.275 5.741,2.568c0.876,2.293 -0.274,4.866 -2.567,5.741c-2.293,0.877 -4.865,-0.274 -5.741,-2.567c-0.876,-2.293 0.273,-4.866 2.567,-5.742Z" style="fill:#002eff;"/><path id="path2036" d="M137.7,346.503c2.085,-0.796 4.424,0.25 5.22,2.335c0.797,2.084 -0.249,4.423 -2.333,5.219c-2.085,0.797 -4.424,-0.25 -5.221,-2.334c-0.796,-2.085 0.25,-4.424 2.334,-5.22Z" style="fill:#002eff;"/><path id="path2038" d="M368.953,257.451c2.426,-0.926 5.147,0.291 6.074,2.716c0.926,2.426 -0.291,5.147 -2.716,6.073c-2.425,0.927 -5.147,-0.29 -6.073,-2.715c-0.927,-2.426 0.29,-5.147 2.715,-6.074Z" style="fill:#002eff;"/><path id="path2040" d="M253.214,301.681c2.418,-0.924 5.131,0.29 6.055,2.709c0.924,2.417 -0.289,5.131 -2.707,6.055c-2.418,0.924 -5.131,-0.29 -6.055,-2.708c-0.924,-2.419 0.288,-5.132 2.707,-6.056Z" style="fill:#002eff;"/><path id="path2042" d="M484.868,213.68c2.179,-0.833 4.625,0.261 5.457,2.44c0.833,2.18 -0.26,4.625 -2.44,5.458c-2.179,0.832 -4.624,-0.261 -5.457,-2.44c-0.832,-2.18 0.26,-4.626 2.44,-5.458Z" style="fill:#002eff;"/><path id="path2044" d="M166.514,335.129c2.262,-0.864 4.799,0.271 5.663,2.531c0.864,2.262 -0.271,4.8 -2.532,5.664c-2.262,0.864 -4.799,-0.271 -5.663,-2.532c-0.864,-2.262 0.271,-4.8 2.532,-5.663Z" style="fill:#002eff;"/><path id="path2046" d="M397.891,246.401c2.423,-0.926 5.143,0.29 6.069,2.713c0.925,2.424 -0.291,5.143 -2.714,6.069c-2.424,0.926 -5.143,-0.29 -6.069,-2.713c-0.926,-2.424 0.29,-5.144 2.714,-6.069Z" style="fill:#002eff;"/><path id="path2048" d="M282.145,290.615c2.425,-0.927 5.147,0.29 6.074,2.715c0.926,2.426 -0.291,5.147 -2.717,6.073c-2.424,0.927 -5.145,-0.29 -6.072,-2.715c-0.927,-2.426 0.289,-5.147 2.715,-6.073Z" style="fill:#002eff;"/><path id="path2050" d="M513.869,202.794c2.087,-0.797 4.428,0.25 5.225,2.336c0.797,2.087 -0.25,4.428 -2.337,5.225c-2.086,0.797 -4.427,-0.25 -5.224,-2.337c-0.797,-2.086 0.25,-4.427 2.336,-5.224Z" style="fill:#002eff;"/><path id="path2052" d="M35.813,253.396c1.793,-0.685 3.805,0.215 4.49,2.008c0.685,1.792 -0.215,3.804 -2.008,4.489c-1.793,0.685 -3.804,-0.215 -4.489,-2.007c-0.685,-1.794 0.215,-3.805 2.007,-4.49Z" style="fill:#002eff;"/><path id="path2054" d="M266.949,164.037c2.303,-0.879 4.887,0.276 5.767,2.579c0.88,2.303 -0.276,4.887 -2.579,5.767c-2.303,0.879 -4.887,-0.276 -5.766,-2.579c-0.88,-2.303 0.276,-4.887 2.578,-5.767Z" style="fill:#002eff;"/><path id="path2056" d="M151.305,208.516c2.158,-0.825 4.58,0.258 5.405,2.418c0.824,2.158 -0.259,4.58 -2.417,5.404c-2.159,0.825 -4.581,-0.258 -5.406,-2.416c-0.825,-2.16 0.259,-4.582 2.418,-5.406Z" style="fill:#002eff;"/><path id="path2058" d="M382.826,120.167c2.111,-0.807 4.48,0.253 5.287,2.364c0.807,2.112 -0.253,4.481 -2.364,5.288c-2.112,0.806 -4.481,-0.253 -5.288,-2.364c-0.806,-2.112 0.253,-4.481 2.365,-5.288Z" style="fill:#002eff;"/><path id="path2060" d="M64.716,242.255c1.841,-0.703 3.906,0.221 4.609,2.061c0.703,1.841 -0.22,3.906 -2.061,4.609c-1.84,0.703 -3.906,-0.22 -4.609,-2.06c-0.703,-1.841 0.221,-3.907 2.061,-4.61Z" style="fill:#002eff;"/><path id="path2062" d="M295.9,153.023c2.281,-0.871 4.84,0.274 5.712,2.554c0.871,2.281 -0.273,4.84 -2.554,5.712c-2.281,0.871 -4.84,-0.274 -5.712,-2.554c-0.871,-2.281 0.274,-4.84 2.554,-5.712Z" style="fill:#002eff;"/><path id="path2064" d="M180.184,197.314c2.24,-0.856 4.753,0.269 5.609,2.508c0.856,2.241 -0.268,4.754 -2.508,5.61c-2.241,0.856 -4.754,-0.268 -5.61,-2.508c-0.855,-2.241 0.269,-4.754 2.509,-5.61Z" style="fill:#002eff;"/><path id="path2066" d="M411.822,109.269c2.025,-0.774 4.297,0.243 5.071,2.268c0.774,2.025 -0.242,4.298 -2.268,5.072c-2.025,0.773 -4.298,-0.243 -5.072,-2.269c-0.774,-2.025 0.243,-4.297 2.269,-5.071Z" style="fill:#002eff;"/><path id="path2068" d="M93.584,231.023c1.939,-0.741 4.115,0.232 4.856,2.171c0.741,1.939 -0.232,4.115 -2.171,4.856c-1.94,0.741 -4.116,-0.233 -4.856,-2.172c-0.741,-1.939 0.232,-4.115 2.171,-4.855Z" style="fill:#002eff;"/><path id="path2070" d="M324.862,142.037c2.244,-0.858 4.761,0.267 5.618,2.512c0.858,2.243 -0.268,4.761 -2.511,5.617c-2.245,0.857 -4.762,-0.268 -5.619,-2.512c-0.857,-2.243 0.269,-4.76 2.512,-5.617Z" style="fill:#002eff;"/><path id="path2072" d="M209.085,186.168c2.291,-0.875 4.861,0.274 5.736,2.565c0.876,2.29 -0.273,4.862 -2.565,5.737c-2.29,0.875 -4.861,-0.274 -5.736,-2.566c-0.875,-2.29 0.274,-4.861 2.565,-5.736Z" style="fill:#002eff;"/><path id="path2074" d="M440.804,98.335c1.958,-0.748 4.156,0.234 4.904,2.193c0.749,1.959 -0.233,4.157 -2.193,4.905c-1.958,0.749 -4.156,-0.234 -4.904,-2.193c-0.749,-1.958 0.234,-4.156 2.193,-4.905Z" style="fill:#002eff;"/><path id="path2076" d="M122.438,219.754c2.058,-0.785 4.366,0.246 5.152,2.304c0.786,2.057 -0.247,4.365 -2.303,5.151c-2.058,0.786 -4.366,-0.246 -5.152,-2.304c-0.786,-2.056 0.246,-4.365 2.303,-5.151Z" style="fill:#002eff;"/><path id="path2078" d="M353.835,131.078c2.191,-0.836 4.648,0.263 5.485,2.453c0.836,2.19 -0.263,4.648 -2.452,5.484c-2.191,0.837 -4.649,-0.262 -5.485,-2.452c-0.837,-2.191 0.262,-4.648 2.452,-5.485Z" style="fill:#002eff;"/><path id="path2080" d="M238.009,175.083c2.308,-0.882 4.897,0.276 5.779,2.584c0.882,2.308 -0.275,4.897 -2.584,5.779c-2.307,0.882 -4.897,-0.276 -5.779,-2.584c-0.881,-2.308 0.276,-4.898 2.584,-5.779Z" style="fill:#002eff;"/><path id="path2082" d="M469.758,87.326c1.933,-0.738 4.103,0.232 4.841,2.166c0.739,1.933 -0.231,4.102 -2.165,4.841c-1.933,0.739 -4.102,-0.232 -4.841,-2.165c-0.739,-1.934 0.231,-4.103 2.165,-4.842Z" style="fill:#002eff;"/><path id="path2084" d="M157.666,572.362c1.423,-0.544 3.022,0.171 3.565,1.594c0.544,1.424 -0.17,3.022 -1.594,3.566c-1.424,0.544 -3.022,-0.17 -3.566,-1.595c-0.544,-1.423 0.17,-3.021 1.595,-3.565Z" style="fill:#002eff;"/><path id="path2086" d="M388.641,482.584c2.165,-0.827 4.596,0.259 5.423,2.425c0.828,2.165 -0.259,4.594 -2.425,5.422c-2.165,0.827 -4.595,-0.259 -5.422,-2.425c-0.828,-2.165 0.258,-4.595 2.424,-5.422Z" style="fill:#002eff;"/><path id="path2088" d="M273.197,527.588c1.732,-0.661 3.674,0.207 4.335,1.938c0.662,1.731 -0.207,3.674 -1.938,4.336c-1.731,0.661 -3.674,-0.208 -4.335,-1.939c-0.661,-1.731 0.207,-3.673 1.938,-4.335Z" style="fill:#002eff;"/><path id="path2090" d="M504.615,438.967c1.834,-0.701 3.893,0.219 4.593,2.054c0.701,1.834 -0.219,3.892 -2.053,4.593c-1.835,0.7 -3.893,-0.22 -4.594,-2.054c-0.701,-1.834 0.22,-3.892 2.054,-4.593Z" style="fill:#002eff;"/><path id="path2092" d="M186.607,561.321c1.417,-0.542 3.007,0.169 3.548,1.586c0.541,1.417 -0.17,3.006 -1.587,3.548c-1.416,0.541 -3.006,-0.169 -3.548,-1.587c-0.541,-1.416 0.17,-3.006 1.587,-3.547Z" style="fill:#002eff;"/><path id="path2094" d="M417.567,471.503c2.181,-0.833 4.627,0.261 5.46,2.441c0.832,2.18 -0.262,4.626 -2.442,5.459c-2.18,0.833 -4.626,-0.261 -5.458,-2.441c-0.833,-2.18 0.261,-4.626 2.44,-5.459Z" style="fill:#002eff;"/><path id="path2096" d="M302.051,516.316c1.851,-0.708 3.928,0.221 4.635,2.073c0.707,1.851 -0.222,3.928 -2.073,4.635c-1.851,0.708 -3.929,-0.221 -4.636,-2.072c-0.707,-1.851 0.222,-3.929 2.074,-4.636Z" style="fill:#002eff;"/><path id="path2098" d="M533.643,428.151c1.702,-0.651 3.612,0.204 4.263,1.907c0.65,1.702 -0.204,3.612 -1.907,4.263c-1.703,0.65 -3.613,-0.204 -4.263,-1.907c-0.651,-1.703 0.204,-3.613 1.907,-4.263Z" style="fill:#002eff;"/><path id="path2100" d="M215.498,550.148c1.482,-0.566 3.144,0.178 3.711,1.659c0.566,1.482 -0.178,3.145 -1.659,3.711c-1.482,0.566 -3.145,-0.178 -3.711,-1.659c-0.566,-1.482 0.177,-3.145 1.659,-3.711Z" style="fill:#002eff;"/><path id="path2102" d="M446.546,460.56c2.119,-0.81 4.496,0.254 5.306,2.372c0.809,2.119 -0.254,4.496 -2.373,5.306c-2.119,0.809 -4.496,-0.254 -5.306,-2.372c-0.809,-2.12 0.254,-4.497 2.373,-5.306Z" style="fill:#002eff;"/><path id="path2104" d="M330.905,505.049c1.969,-0.753 4.178,0.235 4.93,2.204c0.752,1.969 -0.235,4.178 -2.204,4.93c-1.969,0.752 -4.178,-0.236 -4.931,-2.204c-0.752,-1.969 0.236,-4.178 2.205,-4.93Z" style="fill:#002eff;"/><path id="path2106" d="M562.627,417.223c1.632,-0.623 3.464,0.196 4.088,1.828c0.624,1.633 -0.195,3.465 -1.828,4.089c-1.632,0.624 -3.464,-0.196 -4.088,-1.828c-0.623,-1.633 0.195,-3.465 1.828,-4.089Z" style="fill:#002eff;"/><path id="path2108" d="M244.353,538.882c1.599,-0.611 3.393,0.191 4.004,1.79c0.611,1.599 -0.192,3.393 -1.79,4.004c-1.6,0.611 -3.394,-0.191 -4.005,-1.79c-0.61,-1.599 0.192,-3.393 1.791,-4.004Z" style="fill:#002eff;"/><path id="path2110" d="M475.57,449.738c1.991,-0.76 4.225,0.239 4.985,2.229c0.761,1.991 -0.238,4.224 -2.228,4.984c-1.991,0.761 -4.225,-0.238 -4.985,-2.229c-0.761,-1.99 0.238,-4.223 2.228,-4.984Z" style="fill:#002eff;"/><path id="path2112" d="M359.762,493.787c2.083,-0.796 4.42,0.25 5.216,2.333c0.796,2.083 -0.248,4.421 -2.332,5.216c-2.083,0.796 -4.42,-0.249 -5.216,-2.333c-0.796,-2.082 0.249,-4.42 2.332,-5.216Z" style="fill:#002eff;"/><path id="path2114" d="M591.554,406.146c1.645,-0.629 3.492,0.197 4.12,1.842c0.629,1.646 -0.196,3.493 -1.842,4.121c-1.645,0.629 -3.492,-0.197 -4.12,-1.843c-0.629,-1.645 0.196,-3.492 1.842,-4.12Z" style="fill:#002eff;"/><path id="path2116" d="M113.316,456.269c1.615,-0.617 3.429,0.194 4.046,1.81c0.617,1.616 -0.193,3.429 -1.809,4.046c-1.616,0.618 -3.429,-0.193 -4.047,-1.809c-0.617,-1.616 0.193,-3.43 1.81,-4.047Z" style="fill:#002eff;"/><path id="path2118" d="M344.25,366.382c2.417,-0.924 5.13,0.29 6.053,2.707c0.924,2.418 -0.288,5.131 -2.707,6.055c-2.417,0.923 -5.13,-0.29 -6.053,-2.707c-0.924,-2.418 0.288,-5.131 2.707,-6.055Z" style="fill:#002eff;"/><path id="path2120" d="M228.573,410.777c2.32,-0.886 4.922,0.278 5.809,2.597c0.886,2.32 -0.278,4.923 -2.598,5.809c-2.32,0.886 -4.922,-0.278 -5.808,-2.597c-0.887,-2.32 0.278,-4.923 2.597,-5.809Z" style="fill:#002eff;"/><path id="path2122" d="M460.036,322.277c2.357,-0.9 5,0.282 5.9,2.638c0.9,2.356 -0.282,4.999 -2.638,5.899c-2.356,0.9 -4.999,-0.282 -5.899,-2.637c-0.9,-2.357 0.282,-5 2.637,-5.9Z" style="fill:#002eff;"/><path id="path2124" d="M142.157,444.966c1.753,-0.669 3.721,0.21 4.39,1.963c0.67,1.754 -0.21,3.721 -1.963,4.391c-1.753,0.67 -3.72,-0.21 -4.39,-1.963c-0.67,-1.754 0.21,-3.721 1.963,-4.391Z" style="fill:#002eff;"/><path id="path2126" d="M373.183,355.322c2.422,-0.924 5.138,0.29 6.063,2.711c0.925,2.421 -0.29,5.137 -2.712,6.062c-2.42,0.925 -5.136,-0.29 -6.061,-2.711c-0.925,-2.42 0.29,-5.137 2.71,-6.062Z" style="fill:#002eff;"/><path id="path2128" d="M257.477,399.638c2.366,-0.904 5.021,0.284 5.925,2.65c0.904,2.367 -0.283,5.022 -2.649,5.926c-2.367,0.904 -5.022,-0.284 -5.926,-2.651c-0.904,-2.366 0.283,-5.021 2.65,-5.925Z" style="fill:#002eff;"/><path id="path2130" d="M489.033,311.379c2.269,-0.868 4.816,0.271 5.684,2.541c0.867,2.271 -0.272,4.818 -2.542,5.685c-2.271,0.867 -4.818,-0.272 -5.685,-2.543c-0.867,-2.269 0.272,-4.816 2.543,-5.683Z" style="fill:#002eff;"/><path id="path2132" d="M170.946,433.529c1.965,-0.751 4.17,0.234 4.921,2.2c0.75,1.964 -0.236,4.17 -2.201,4.92c-1.964,0.751 -4.169,-0.235 -4.92,-2.2c-0.75,-1.965 0.236,-4.169 2.2,-4.92Z" style="fill:#002eff;"/><path id="path2134" d="M402.119,344.268c2.422,-0.924 5.138,0.289 6.063,2.711c0.925,2.42 -0.29,5.136 -2.711,6.061c-2.421,0.925 -5.137,-0.289 -6.062,-2.71c-0.925,-2.421 0.29,-5.137 2.71,-6.062Z" style="fill:#002eff;"/><path id="path2136" d="M286.396,388.539c2.391,-0.913 5.074,0.286 5.987,2.677c0.914,2.391 -0.286,5.074 -2.677,5.988c-2.392,0.913 -5.075,-0.286 -5.988,-2.678c-0.914,-2.39 0.286,-5.073 2.678,-5.987Z" style="fill:#002eff;"/><path id="path2138" d="M518.036,300.5c2.172,-0.83 4.611,0.26 5.441,2.433c0.83,2.173 -0.26,4.611 -2.433,5.441c-2.173,0.83 -4.612,-0.259 -5.442,-2.433c-0.83,-2.172 0.26,-4.611 2.434,-5.441Z" style="fill:#002eff;"/><path id="path2140" d="M199.732,422.08c2.183,-0.834 4.631,0.261 5.465,2.444c0.833,2.182 -0.262,4.63 -2.444,5.464c-2.182,0.834 -4.631,-0.26 -5.465,-2.443c-0.833,-2.182 0.262,-4.631 2.444,-5.465Z" style="fill:#002eff;"/><path id="path2142" d="M431.067,333.244c2.405,-0.918 5.102,0.288 6.02,2.693c0.918,2.403 -0.288,5.1 -2.691,6.018c-2.405,0.919 -5.102,-0.288 -6.02,-2.691c-0.918,-2.404 0.288,-5.101 2.691,-6.02Z" style="fill:#002eff;"/><path id="path2144" d="M315.32,377.453c2.408,-0.921 5.111,0.288 6.031,2.697c0.92,2.408 -0.288,5.111 -2.697,6.031c-2.408,0.92 -5.11,-0.288 -6.031,-2.696c-0.92,-2.41 0.288,-5.112 2.697,-6.032Z" style="fill:#002eff;"/><path id="path2146" d="M547.021,289.574c2.102,-0.803 4.46,0.251 5.263,2.354c0.803,2.102 -0.251,4.461 -2.353,5.264c-2.102,0.803 -4.461,-0.252 -5.264,-2.354c-0.803,-2.103 0.251,-4.461 2.354,-5.264Z" style="fill:#002eff;"/><path id="path2148" d="M69.015,340.306c1.736,-0.664 3.685,0.207 4.349,1.945c0.664,1.736 -0.208,3.686 -1.945,4.35c-1.737,0.663 -3.685,-0.209 -4.349,-1.946c-0.664,-1.737 0.207,-3.686 1.945,-4.349Z" style="fill:#002eff;"/><path id="path2150" d="M300.027,250.625c2.425,-0.927 5.146,0.289 6.073,2.715c0.926,2.425 -0.29,5.146 -2.716,6.072c-2.424,0.927 -5.146,-0.289 -6.072,-2.715c-0.927,-2.425 0.289,-5.146 2.715,-6.072Z" style="fill:#002eff;"/><path id="path2152" d="M184.335,294.981c2.349,-0.897 4.984,0.28 5.881,2.629c0.898,2.348 -0.281,4.983 -2.629,5.88c-2.349,0.897 -4.984,-0.28 -5.881,-2.629c-0.897,-2.348 0.282,-4.983 2.629,-5.88Z" style="fill:#002eff;"/><path id="path2154" d="M415.826,206.55c2.347,-0.896 4.979,0.281 5.876,2.627c0.896,2.346 -0.281,4.979 -2.627,5.875c-2.347,0.896 -4.98,-0.28 -5.876,-2.627c-0.897,-2.346 0.281,-4.978 2.627,-5.875Z" style="fill:#002eff;"/><path id="path2156" d="M97.855,329c1.875,-0.717 3.98,0.224 4.697,2.1c0.716,1.876 -0.225,3.98 -2.101,4.697c-1.875,0.716 -3.98,-0.224 -4.696,-2.1c-0.717,-1.875 0.224,-3.981 2.1,-4.697Z" style="fill:#002eff;"/><path id="path2158" d="M328.964,239.571c2.424,-0.927 5.145,0.29 6.071,2.715c0.927,2.424 -0.29,5.145 -2.715,6.071c-2.424,0.926 -5.145,-0.29 -6.071,-2.714c-0.926,-2.426 0.29,-5.146 2.715,-6.072Z" style="fill:#002eff;"/><path id="path2160" d="M213.242,283.85c2.391,-0.913 5.073,0.286 5.987,2.677c0.913,2.39 -0.287,5.072 -2.677,5.985c-2.391,0.913 -5.073,-0.286 -5.986,-2.676c-0.913,-2.391 0.287,-5.073 2.676,-5.986Z" style="fill:#002eff;"/><path id="path2162" d="M444.834,195.683c2.243,-0.857 4.759,0.268 5.616,2.512c0.857,2.242 -0.269,4.759 -2.511,5.616c-2.243,0.857 -4.76,-0.269 -5.617,-2.511c-0.857,-2.244 0.269,-4.76 2.512,-5.617Z" style="fill:#002eff;"/><path id="path2164" d="M126.657,317.596c2.069,-0.79 4.39,0.248 5.181,2.316c0.79,2.069 -0.248,4.39 -2.317,5.18c-2.069,0.791 -4.39,-0.247 -5.18,-2.316c-0.79,-2.069 0.248,-4.39 2.316,-5.18Z" style="fill:#002eff;"/><path id="path2166" d="M357.903,228.526c2.42,-0.924 5.135,0.29 6.059,2.709c0.924,2.42 -0.29,5.134 -2.71,6.059c-2.419,0.924 -5.133,-0.29 -6.058,-2.709c-0.924,-2.42 0.29,-5.135 2.709,-6.059Z" style="fill:#002eff;"/><path id="path2168" d="M242.161,272.747c2.417,-0.924 5.129,0.289 6.053,2.706c0.923,2.418 -0.29,5.131 -2.707,6.054c-2.418,0.924 -5.131,-0.289 -6.054,-2.706c-0.924,-2.418 0.29,-5.131 2.708,-6.054Z" style="fill:#002eff;"/><path id="path2170" d="M473.851,184.84c2.126,-0.813 4.512,0.254 5.324,2.38c0.813,2.127 -0.254,4.513 -2.381,5.326c-2.127,0.812 -4.513,-0.255 -5.325,-2.381c-0.812,-2.127 0.255,-4.513 2.382,-5.325Z" style="fill:#002eff;"/><path id="path2172" d="M155.468,306.213c2.25,-0.859 4.774,0.27 5.634,2.519c0.86,2.251 -0.27,4.775 -2.519,5.635c-2.25,0.859 -4.775,-0.27 -5.634,-2.519c-0.86,-2.251 0.269,-4.775 2.519,-5.635Z" style="fill:#002eff;"/><path id="path2174" d="M386.85,217.501c2.404,-0.918 5.101,0.288 6.019,2.691c0.918,2.404 -0.288,5.1 -2.691,6.019c-2.404,0.918 -5.1,-0.288 -6.018,-2.692c-0.919,-2.403 0.288,-5.1 2.69,-6.018Z" style="fill:#002eff;"/><path id="path2176" d="M271.091,261.679c2.425,-0.927 5.146,0.29 6.073,2.715c0.926,2.426 -0.29,5.147 -2.716,6.073c-2.424,0.927 -5.147,-0.29 -6.073,-2.716c-0.926,-2.425 0.29,-5.146 2.716,-6.072Z" style="fill:#002eff;"/><path id="path2178" d="M502.848,173.946c2.038,-0.778 4.324,0.244 5.103,2.282c0.778,2.037 -0.244,4.325 -2.282,5.103c-2.037,0.779 -4.324,-0.244 -5.102,-2.282c-0.779,-2.038 0.243,-4.324 2.281,-5.103Z" style="fill:#002eff;"/><path id="path2180" d="M24.722,224.363c1.846,-0.705 3.917,0.221 4.623,2.067c0.705,1.847 -0.221,3.918 -2.067,4.623c-1.846,0.706 -3.918,-0.221 -4.623,-2.066c-0.705,-1.847 0.22,-3.919 2.067,-4.624Z" style="fill:#002eff;"/><path id="path2182" d="M255.974,135.31c2.188,-0.836 4.643,0.262 5.479,2.449c0.835,2.189 -0.262,4.644 -2.45,5.479c-2.187,0.836 -4.642,-0.262 -5.478,-2.449c-0.836,-2.189 0.261,-4.644 2.449,-5.479Z" style="fill:#002eff;"/><path id="path2184" d="M140.339,179.814c2.03,-0.775 4.307,0.243 5.083,2.272c0.775,2.03 -0.244,4.307 -2.273,5.082c-2.03,0.776 -4.307,-0.243 -5.082,-2.272c-0.775,-2.03 0.243,-4.307 2.272,-5.082Z" style="fill:#002eff;"/><path id="path2186" d="M371.822,91.365c2.038,-0.779 4.325,0.244 5.103,2.281c0.779,2.038 -0.244,4.324 -2.281,5.103c-2.038,0.778 -4.325,-0.244 -5.103,-2.281c-0.778,-2.039 0.244,-4.325 2.281,-5.103Z" style="fill:#002eff;"/><path id="path2188" d="M53.658,213.309c1.846,-0.706 3.917,0.221 4.623,2.067c0.705,1.847 -0.221,3.918 -2.067,4.624c-1.846,0.705 -3.918,-0.221 -4.623,-2.067c-0.706,-1.847 0.22,-3.919 2.067,-4.624Z" style="fill:#002eff;"/><path id="path2190" d="M284.919,124.279c2.175,-0.831 4.615,0.26 5.446,2.435c0.831,2.176 -0.259,4.616 -2.435,5.447c-2.175,0.831 -4.615,-0.26 -5.446,-2.436c-0.831,-2.175 0.259,-4.615 2.435,-5.446Z" style="fill:#002eff;"/><path id="path2192" d="M169.227,168.633c2.1,-0.801 4.455,0.252 5.257,2.351c0.802,2.099 -0.252,4.455 -2.351,5.257c-2.099,0.802 -4.454,-0.252 -5.256,-2.351c-0.802,-2.099 0.251,-4.455 2.35,-5.257Z" style="fill:#002eff;"/><path id="path2194" d="M400.8,80.42c1.978,-0.755 4.196,0.237 4.952,2.214c0.755,1.978 -0.237,4.196 -2.214,4.952c-1.978,0.755 -4.196,-0.237 -4.952,-2.215c-0.755,-1.977 0.237,-4.196 2.214,-4.951Z" style="fill:#002eff;"/><path id="path2196" d="M82.563,202.175c1.891,-0.723 4.013,0.225 4.735,2.116c0.722,1.89 -0.227,4.013 -2.118,4.734c-1.89,0.722 -4.011,-0.226 -4.733,-2.117c-0.723,-1.89 0.226,-4.011 2.116,-4.733Z" style="fill:#002eff;"/><path id="path2198" d="M313.875,113.275c2.147,-0.82 4.556,0.257 5.377,2.404c0.82,2.147 -0.257,4.556 -2.405,5.376c-2.147,0.821 -4.556,-0.256 -5.376,-2.403c-0.821,-2.147 0.257,-4.556 2.404,-5.377Z" style="fill:#002eff;"/><path id="path2200" d="M198.128,157.485c2.15,-0.822 4.564,0.257 5.386,2.409c0.822,2.15 -0.258,4.564 -2.408,5.386c-2.152,0.822 -4.566,-0.257 -5.388,-2.409c-0.822,-2.15 0.258,-4.564 2.41,-5.386Z" style="fill:#002eff;"/><path id="path2202" d="M429.762,69.431c1.941,-0.742 4.119,0.232 4.861,2.174c0.741,1.941 -0.233,4.119 -2.174,4.86c-1.942,0.742 -4.12,-0.231 -4.862,-2.173c-0.741,-1.941 0.233,-4.119 2.175,-4.861Z" style="fill:#002eff;"/><path id="path2204" d="M111.454,191.001c1.957,-0.747 4.151,0.234 4.898,2.191c0.748,1.955 -0.234,4.15 -2.19,4.897c-1.956,0.748 -4.151,-0.234 -4.898,-2.19c-0.747,-1.956 0.234,-4.151 2.19,-4.898Z" style="fill:#002eff;"/><path id="path2206" d="M342.843,102.304c2.101,-0.803 4.458,0.252 5.261,2.353c0.803,2.101 -0.252,4.458 -2.352,5.261c-2.102,0.803 -4.459,-0.252 -5.262,-2.352c-0.803,-2.102 0.252,-4.459 2.353,-5.262Z" style="fill:#002eff;"/><path id="path2208" d="M227.043,146.377c2.181,-0.833 4.627,0.261 5.46,2.442c0.834,2.18 -0.261,4.627 -2.441,5.46c-2.181,0.833 -4.628,-0.261 -5.461,-2.441c-0.833,-2.181 0.261,-4.628 2.442,-5.461Z" style="fill:#002eff;"/><path id="path2210" d="M458.695,58.369c1.945,-0.743 4.128,0.233 4.871,2.178c0.743,1.946 -0.232,4.128 -2.178,4.872c-1.945,0.743 -4.129,-0.234 -4.872,-2.179c-0.743,-1.945 0.233,-4.128 2.179,-4.871Z" style="fill:#002eff;"/><path id="path2212" d="M146.641,543.503c1.381,-0.528 2.931,0.165 3.459,1.547c0.527,1.381 -0.166,2.93 -1.547,3.458c-1.382,0.528 -2.932,-0.165 -3.459,-1.546c-0.528,-1.381 0.165,-2.931 1.547,-3.459Z" style="fill:#002eff;"/><path id="path2214" d="M377.521,453.475c2.261,-0.864 4.798,0.27 5.661,2.531c0.864,2.261 -0.269,4.798 -2.531,5.662c-2.261,0.864 -4.799,-0.27 -5.662,-2.532c-0.864,-2.26 0.271,-4.797 2.532,-5.661Z" style="fill:#002eff;"/><path id="path2216" d="M262.048,498.403c1.869,-0.713 3.965,0.223 4.679,2.092c0.714,1.868 -0.224,3.965 -2.092,4.679c-1.869,0.713 -3.965,-0.223 -4.679,-2.092c-0.714,-1.868 0.224,-3.965 2.092,-4.679Z" style="fill:#002eff;"/><path id="path2218" d="M493.464,409.777c1.974,-0.754 4.189,0.237 4.943,2.211c0.754,1.973 -0.237,4.188 -2.21,4.942c-1.974,0.754 -4.189,-0.236 -4.943,-2.21c-0.754,-1.973 0.237,-4.188 2.21,-4.943Z" style="fill:#002eff;"/><path id="path2220" d="M175.555,532.39c1.413,-0.541 2.999,0.169 3.539,1.583c0.54,1.413 -0.168,3 -1.582,3.54c-1.414,0.54 -3,-0.17 -3.54,-1.583c-0.54,-1.414 0.169,-3 1.583,-3.54Z" style="fill:#002eff;"/><path id="path2222" d="M406.442,442.38c2.283,-0.872 4.844,0.273 5.716,2.557c0.873,2.283 -0.272,4.845 -2.556,5.717c-2.282,0.872 -4.844,-0.274 -5.716,-2.556c-0.873,-2.284 0.272,-4.846 2.556,-5.718Z" style="fill:#002eff;"/><path id="path2224" d="M290.893,487.109c2.001,-0.764 4.245,0.24 5.009,2.241c0.764,2 -0.239,4.244 -2.239,5.009c-2.001,0.764 -4.246,-0.24 -5.01,-2.24c-0.764,-2.001 0.24,-4.245 2.24,-5.01Z" style="fill:#002eff;"/><path id="path2226" d="M522.502,398.989c1.827,-0.698 3.877,0.219 4.575,2.046c0.698,1.827 -0.219,3.877 -2.046,4.575c-1.827,0.698 -3.877,-0.219 -4.575,-2.046c-0.698,-1.827 0.219,-3.877 2.046,-4.575Z" style="fill:#002eff;"/><path id="path2228" d="M204.412,521.129c1.527,-0.584 3.242,0.183 3.825,1.71c0.584,1.528 -0.182,3.243 -1.71,3.826c-1.528,0.584 -3.242,-0.183 -3.826,-1.71c-0.583,-1.528 0.183,-3.243 1.711,-3.826Z" style="fill:#002eff;"/><path id="path2230" d="M435.408,431.405c2.239,-0.855 4.753,0.269 5.608,2.507c0.855,2.24 -0.268,4.753 -2.508,5.608c-2.239,0.856 -4.751,-0.268 -5.607,-2.507c-0.855,-2.24 0.267,-4.752 2.507,-5.608Z" style="fill:#002eff;"/><path id="path2232" d="M319.755,475.863c2.107,-0.804 4.47,0.253 5.275,2.359c0.805,2.106 -0.252,4.47 -2.358,5.275c-2.107,0.804 -4.47,-0.253 -5.275,-2.359c-0.805,-2.107 0.252,-4.47 2.358,-5.275Z" style="fill:#002eff;"/><path id="path2234" d="M551.501,388.1c1.736,-0.663 3.683,0.208 4.347,1.944c0.663,1.736 -0.208,3.684 -1.944,4.347c-1.736,0.663 -3.683,-0.208 -4.347,-1.944c-0.663,-1.736 0.208,-3.683 1.944,-4.347Z" style="fill:#002eff;"/><path id="path2236" d="M233.232,509.77c1.696,-0.647 3.598,0.204 4.246,1.899c0.648,1.696 -0.203,3.599 -1.899,4.247c-1.696,0.648 -3.598,-0.203 -4.246,-1.9c-0.648,-1.695 0.203,-3.598 1.899,-4.246Z" style="fill:#002eff;"/><path id="path2238" d="M464.421,420.551c2.129,-0.813 4.518,0.254 5.331,2.384c0.813,2.128 -0.255,4.518 -2.385,5.331c-2.128,0.814 -4.517,-0.255 -5.33,-2.384c-0.813,-2.129 0.255,-4.517 2.384,-5.331Z" style="fill:#002eff;"/><path id="path2240" d="M348.628,464.64c2.199,-0.84 4.667,0.264 5.507,2.463c0.841,2.2 -0.263,4.668 -2.463,5.509c-2.2,0.84 -4.668,-0.264 -5.508,-2.464c-0.841,-2.199 0.263,-4.668 2.464,-5.508Z" style="fill:#002eff;"/><path id="path2242" d="M580.443,377.062c1.727,-0.66 3.665,0.206 4.325,1.934c0.66,1.726 -0.207,3.664 -1.934,4.324c-1.727,0.66 -3.665,-0.206 -4.325,-1.934c-0.66,-1.726 0.207,-3.664 1.934,-4.324Z" style="fill:#002eff;"/><path id="path2244" d="M102.2,427.173c1.704,-0.651 3.617,0.204 4.268,1.908c0.651,1.705 -0.204,3.617 -1.908,4.269c-1.705,0.651 -3.618,-0.205 -4.269,-1.909c-0.651,-1.705 0.204,-3.617 1.909,-4.268Z" style="fill:#002eff;"/><path id="path2246" d="M333.19,337.433c2.425,-0.927 5.146,0.29 6.073,2.715c0.926,2.426 -0.291,5.147 -2.716,6.073c-2.425,0.927 -5.146,-0.29 -6.073,-2.715c-0.927,-2.426 0.291,-5.147 2.716,-6.073Z" style="fill:#002eff;"/><path id="path2248" d="M217.497,381.784c2.351,-0.898 4.989,0.282 5.888,2.632c0.898,2.352 -0.282,4.99 -2.634,5.888c-2.35,0.898 -4.988,-0.282 -5.887,-2.632c-0.898,-2.352 0.282,-4.99 2.633,-5.888Z" style="fill:#002eff;"/><path id="path2250" d="M448.959,293.279c2.39,-0.913 5.072,0.287 5.985,2.676c0.913,2.391 -0.287,5.072 -2.677,5.985c-2.39,0.913 -5.071,-0.286 -5.984,-2.676c-0.913,-2.39 0.286,-5.071 2.676,-5.985Z" style="fill:#002eff;"/><path id="path2252" d="M131.034,415.85c1.852,-0.708 3.931,0.222 4.639,2.074c0.708,1.854 -0.221,3.933 -2.075,4.64c-1.852,0.708 -3.932,-0.222 -4.639,-2.075c-0.708,-1.852 0.221,-3.931 2.075,-4.639Z" style="fill:#002eff;"/><path id="path2254" d="M362.126,326.378c2.425,-0.926 5.146,0.29 6.073,2.716c0.926,2.424 -0.29,5.147 -2.716,6.073c-2.424,0.927 -5.145,-0.29 -6.072,-2.716c-0.927,-2.425 0.289,-5.146 2.715,-6.073Z" style="fill:#002eff;"/><path id="path2256" d="M246.406,370.66c2.39,-0.912 5.071,0.287 5.984,2.676c0.913,2.39 -0.286,5.071 -2.675,5.984c-2.39,0.912 -5.071,-0.287 -5.984,-2.677c-0.913,-2.389 0.286,-5.07 2.675,-5.983Z" style="fill:#002eff;"/><path id="path2258" d="M477.947,282.362c2.315,-0.884 4.912,0.276 5.796,2.591c0.884,2.314 -0.277,4.911 -2.591,5.795c-2.315,0.885 -4.912,-0.276 -5.796,-2.591c-0.884,-2.314 0.277,-4.911 2.591,-5.795Z" style="fill:#002eff;"/><path id="path2260" d="M159.825,404.418c2.061,-0.788 4.374,0.246 5.162,2.308c0.787,2.061 -0.246,4.374 -2.308,5.161c-2.061,0.788 -4.374,-0.246 -5.162,-2.308c-0.787,-2.061 0.246,-4.374 2.308,-5.161Z" style="fill:#002eff;"/><path id="path2262" d="M391.062,315.323c2.425,-0.926 5.146,0.291 6.073,2.717c0.926,2.424 -0.29,5.146 -2.715,6.072c-2.425,0.927 -5.147,-0.289 -6.073,-2.715c-0.927,-2.425 0.29,-5.147 2.715,-6.074Z" style="fill:#002eff;"/><path id="path2264" d="M275.327,359.566c2.412,-0.922 5.118,0.288 6.04,2.7c0.921,2.412 -0.289,5.118 -2.701,6.039c-2.412,0.922 -5.118,-0.288 -6.04,-2.7c-0.921,-2.412 0.289,-5.118 2.701,-6.039Z" style="fill:#002eff;"/><path id="path2266" d="M506.951,271.485c2.217,-0.846 4.703,0.266 5.55,2.482c0.846,2.216 -0.266,4.702 -2.481,5.549c-2.217,0.847 -4.703,-0.266 -5.55,-2.481c-0.847,-2.217 0.266,-4.703 2.481,-5.55Z" style="fill:#002eff;"/><path id="path2268" d="M188.631,393.023c2.249,-0.859 4.773,0.269 5.633,2.519c0.859,2.249 -0.27,4.772 -2.519,5.631c-2.249,0.86 -4.772,-0.269 -5.632,-2.518c-0.859,-2.249 0.27,-4.773 2.518,-5.632Z" style="fill:#002eff;"/><path id="path2270" d="M420.002,304.279c2.421,-0.924 5.136,0.29 6.06,2.709c0.925,2.421 -0.29,5.136 -2.71,6.061c-2.42,0.924 -5.135,-0.29 -6.059,-2.71c-0.925,-2.42 0.29,-5.135 2.709,-6.06Z" style="fill:#002eff;"/><path id="path2272" d="M304.256,348.49c2.423,-0.926 5.142,0.29 6.068,2.714c0.926,2.423 -0.29,5.142 -2.714,6.068c-2.424,0.926 -5.143,-0.29 -6.069,-2.713c-0.926,-2.424 0.29,-5.144 2.715,-6.069Z" style="fill:#002eff;"/><path id="path2274" d="M535.945,260.581c2.133,-0.815 4.527,0.256 5.342,2.389c0.815,2.133 -0.256,4.527 -2.389,5.342c-2.134,0.815 -4.527,-0.256 -5.342,-2.388c-0.815,-2.134 0.255,-4.528 2.389,-5.343Z" style="fill:#002eff;"/><path id="path2276" d="M57.961,311.371c1.736,-0.663 3.684,0.207 4.348,1.944c0.663,1.736 -0.208,3.684 -1.944,4.348c-1.737,0.663 -3.686,-0.208 -4.349,-1.945c-0.663,-1.736 0.208,-3.684 1.945,-4.347Z" style="fill:#002eff;"/><path id="path2278" d="M288.98,221.705c2.415,-0.922 5.126,0.289 6.048,2.705c0.923,2.416 -0.289,5.126 -2.704,6.049c-2.417,0.923 -5.127,-0.288 -6.05,-2.705c-0.923,-2.415 0.29,-5.126 2.706,-6.049Z" style="fill:#002eff;"/><path id="path2280" d="M173.292,266.072c2.334,-0.891 4.952,0.279 5.843,2.613c0.892,2.333 -0.279,4.951 -2.613,5.842c-2.333,0.891 -4.951,-0.279 -5.842,-2.612c-0.892,-2.333 0.279,-4.951 2.612,-5.843Z" style="fill:#002eff;"/><path id="path2282" d="M404.813,177.721c2.287,-0.874 4.854,0.274 5.727,2.561c0.874,2.287 -0.274,4.853 -2.561,5.727c-2.287,0.873 -4.853,-0.274 -5.727,-2.561c-0.873,-2.287 0.274,-4.853 2.561,-5.727Z" style="fill:#002eff;"/><path id="path2284" d="M86.813,300.097c1.857,-0.71 3.941,0.222 4.651,2.08c0.71,1.857 -0.223,3.941 -2.08,4.651c-1.857,0.709 -3.942,-0.223 -4.651,-2.08c-0.71,-1.858 0.222,-3.942 2.08,-4.651Z" style="fill:#002eff;"/><path id="path2286" d="M317.923,210.669c2.405,-0.919 5.104,0.288 6.023,2.693c0.92,2.407 -0.287,5.106 -2.693,6.025c-2.405,0.919 -5.106,-0.288 -6.025,-2.694c-0.919,-2.406 0.288,-5.105 2.695,-6.024Z" style="fill:#002eff;"/><path id="path2288" d="M202.191,254.921c2.387,-0.912 5.065,0.286 5.976,2.673c0.912,2.386 -0.286,5.063 -2.671,5.975c-2.387,0.912 -5.065,-0.286 -5.977,-2.672c-0.911,-2.387 0.286,-5.064 2.672,-5.976Z" style="fill:#002eff;"/><path id="path2290" d="M433.825,166.867c2.177,-0.832 4.62,0.261 5.451,2.437c0.832,2.177 -0.261,4.619 -2.437,5.451c-2.177,0.831 -4.619,-0.261 -5.451,-2.437c-0.831,-2.177 0.261,-4.62 2.437,-5.451Z" style="fill:#002eff;"/><path id="path2292" d="M115.626,288.719c2.035,-0.778 4.32,0.244 5.098,2.279c0.778,2.037 -0.243,4.322 -2.28,5.1c-2.036,0.778 -4.32,-0.244 -5.098,-2.28c-0.778,-2.037 0.243,-4.321 2.28,-5.099Z" style="fill:#002eff;"/><path id="path2294" d="M346.871,199.648c2.387,-0.912 5.066,0.286 5.978,2.673c0.912,2.388 -0.285,5.067 -2.673,5.979c-2.387,0.912 -5.065,-0.286 -5.978,-2.673c-0.912,-2.388 0.286,-5.067 2.673,-5.979Z" style="fill:#002eff;"/><path id="path2296" d="M231.106,243.812c2.417,-0.923 5.129,0.29 6.052,2.706c0.923,2.417 -0.29,5.128 -2.706,6.052c-2.417,0.923 -5.128,-0.29 -6.051,-2.706c-0.924,-2.417 0.289,-5.128 2.705,-6.052Z" style="fill:#002eff;"/><path id="path2298" d="M462.839,156.015c2.065,-0.788 4.382,0.248 5.171,2.312c0.788,2.065 -0.248,4.382 -2.312,5.171c-2.066,0.789 -4.382,-0.247 -5.171,-2.313c-0.789,-2.064 0.247,-4.381 2.312,-5.17Z" style="fill:#002eff;"/><path id="path2300" d="M144.436,277.336c2.217,-0.848 4.706,0.266 5.553,2.483c0.847,2.218 -0.265,4.706 -2.483,5.553c-2.218,0.848 -4.706,-0.265 -5.553,-2.483c-0.847,-2.218 0.265,-4.706 2.483,-5.553Z" style="fill:#002eff;"/><path id="path2302" d="M375.828,188.649c2.357,-0.9 5.002,0.282 5.903,2.639c0.9,2.357 -0.283,5.002 -2.64,5.901c-2.356,0.901 -5.001,-0.281 -5.901,-2.638c-0.901,-2.357 0.281,-5.001 2.638,-5.902Z" style="fill:#002eff;"/><path id="path2304" d="M260.039,232.751c2.422,-0.925 5.138,0.29 6.063,2.71c0.925,2.42 -0.29,5.138 -2.711,6.062c-2.421,0.925 -5.137,-0.29 -6.062,-2.711c-0.925,-2.42 0.29,-5.137 2.71,-6.061Z" style="fill:#002eff;"/><path id="path2306" d="M491.828,145.099c1.988,-0.76 4.22,0.237 4.98,2.227c0.76,1.988 -0.238,4.22 -2.227,4.979c-1.989,0.76 -4.221,-0.237 -4.98,-2.226c-0.76,-1.989 0.238,-4.22 2.227,-4.98Z" style="fill:#002eff;"/><path id="path2308" d="M13.616,195.294c1.92,-0.733 4.074,0.23 4.807,2.149c0.734,1.92 -0.23,4.074 -2.149,4.808c-1.92,0.733 -4.074,-0.231 -4.807,-2.15c-0.733,-1.92 0.23,-4.074 2.149,-4.807Z" style="fill:#002eff;"/><path id="path2310" d="M244.997,106.576c2.076,-0.793 4.406,0.249 5.199,2.324c0.793,2.077 -0.249,4.407 -2.324,5.2c-2.077,0.793 -4.407,-0.249 -5.2,-2.325c-0.793,-2.076 0.249,-4.406 2.325,-5.199Z" style="fill:#002eff;"/><path id="path2312" d="M129.355,151.06c1.929,-0.737 4.093,0.231 4.83,2.16c0.737,1.929 -0.231,4.093 -2.16,4.83c-1.929,0.737 -4.093,-0.231 -4.83,-2.159c-0.737,-1.93 0.231,-4.094 2.16,-4.831Z" style="fill:#002eff;"/><path id="path2314" d="M360.792,62.49c2.004,-0.766 4.253,0.24 5.018,2.244c0.766,2.004 -0.24,4.252 -2.244,5.018c-2.004,0.766 -4.252,-0.24 -5.018,-2.245c-0.766,-2.003 0.24,-4.252 2.244,-5.017Z" style="fill:#002eff;"/><path id="path2316" d="M42.585,184.323c1.873,-0.716 3.976,0.224 4.692,2.098c0.716,1.874 -0.225,3.977 -2.098,4.693c-1.875,0.716 -3.977,-0.225 -4.693,-2.099c-0.716,-1.874 0.224,-3.976 2.099,-4.692Z" style="fill:#002eff;"/><path id="path2318" d="M273.932,95.518c2.078,-0.794 4.41,0.248 5.204,2.327c0.794,2.078 -0.249,4.411 -2.327,5.205c-2.079,0.793 -4.411,-0.249 -5.205,-2.328c-0.794,-2.078 0.249,-4.41 2.328,-5.204Z" style="fill:#002eff;"/><path id="path2320" d="M158.259,139.922c1.975,-0.755 4.192,0.237 4.946,2.212c0.755,1.975 -0.236,4.192 -2.212,4.946c-1.975,0.755 -4.191,-0.236 -4.946,-2.212c-0.755,-1.975 0.237,-4.191 2.212,-4.946Z" style="fill:#002eff;"/><path id="path2322" d="M389.75,51.495c1.972,-0.753 4.184,0.236 4.937,2.207c0.753,1.971 -0.237,4.182 -2.208,4.935c-1.971,0.753 -4.182,-0.235 -4.935,-2.206c-0.754,-1.971 0.236,-4.183 2.206,-4.936Z" style="fill:#002eff;"/><path id="path2324" d="M71.526,173.284c1.866,-0.713 3.959,0.222 4.672,2.088c0.712,1.866 -0.223,3.959 -2.089,4.672c-1.865,0.713 -3.959,-0.223 -4.671,-2.089c-0.713,-1.865 0.222,-3.959 2.088,-4.671Z" style="fill:#002eff;"/><path id="path2326" d="M302.875,84.481c2.068,-0.79 4.389,0.248 5.179,2.317c0.79,2.068 -0.247,4.388 -2.316,5.178c-2.068,0.791 -4.388,-0.247 -5.178,-2.315c-0.791,-2.068 0.247,-4.39 2.315,-5.18Z" style="fill:#002eff;"/><path id="path2328" d="M187.163,128.787c2.021,-0.772 4.288,0.241 5.06,2.261c0.771,2.02 -0.242,4.287 -2.262,5.059c-2.021,0.771 -4.288,-0.242 -5.059,-2.262c-0.772,-2.02 0.242,-4.287 2.261,-5.058Z" style="fill:#002eff;"/><path id="path2330" d="M418.692,40.454c1.964,-0.75 4.167,0.235 4.917,2.199c0.75,1.963 -0.235,4.166 -2.198,4.917c-1.964,0.75 -4.168,-0.236 -4.918,-2.199c-0.75,-1.964 0.235,-4.167 2.199,-4.917Z" style="fill:#002eff;"/><path id="path2332" d="M100.448,162.19c1.886,-0.721 4.004,0.226 4.725,2.113c0.721,1.887 -0.226,4.005 -2.113,4.726c-1.887,0.721 -4.004,-0.226 -4.725,-2.113c-0.721,-1.888 0.225,-4.005 2.113,-4.726Z" style="fill:#002eff;"/><path id="path2334" d="M331.829,73.474c2.042,-0.78 4.334,0.245 5.114,2.287c0.78,2.043 -0.244,4.334 -2.287,5.115c-2.042,0.78 -4.333,-0.245 -5.114,-2.287c-0.78,-2.043 0.244,-4.335 2.287,-5.115Z" style="fill:#002eff;"/><path id="path2336" d="M216.075,117.666c2.056,-0.785 4.363,0.247 5.149,2.302c0.785,2.057 -0.247,4.364 -2.302,5.15c-2.057,0.785 -4.364,-0.247 -5.149,-2.302c-0.786,-2.057 0.246,-4.364 2.302,-5.15Z" style="fill:#002eff;"/><path id="path2338" d="M447.607,29.346c1.994,-0.761 4.23,0.239 4.992,2.232c0.761,1.993 -0.239,4.23 -2.232,4.991c-1.994,0.762 -4.23,-0.238 -4.992,-2.231c-0.761,-1.994 0.239,-4.23 2.232,-4.992Z" style="fill:#002eff;"/><path id="path2340" d="M135.563,514.506c1.415,-0.54 3.003,0.169 3.543,1.584c0.541,1.415 -0.169,3.002 -1.584,3.543c-1.415,0.54 -3.002,-0.169 -3.543,-1.584c-0.54,-1.415 0.17,-3.002 1.584,-3.543Z" style="fill:#002eff;"/><path id="path2342" d="M366.415,424.403c2.336,-0.892 4.956,0.28 5.848,2.616c0.892,2.335 -0.28,4.955 -2.615,5.847c-2.335,0.892 -4.956,-0.28 -5.848,-2.614c-0.892,-2.336 0.28,-4.956 2.615,-5.849Z" style="fill:#002eff;"/><path id="path2344" d="M250.867,469.135c2.051,-0.783 4.353,0.246 5.136,2.298c0.784,2.05 -0.245,4.352 -2.296,5.136c-2.051,0.783 -4.353,-0.245 -5.136,-2.297c-0.784,-2.051 0.245,-4.353 2.296,-5.137Z" style="fill:#002eff;"/><path id="path2346" d="M482.305,380.566c2.125,-0.812 4.511,0.255 5.323,2.381c0.812,2.125 -0.254,4.51 -2.381,5.322c-2.125,0.813 -4.51,-0.254 -5.322,-2.38c-0.812,-2.126 0.254,-4.511 2.38,-5.323Z" style="fill:#002eff;"/><path id="path2348" d="M164.449,503.32c1.488,-0.569 3.157,0.178 3.725,1.666c0.568,1.487 -0.178,3.156 -1.665,3.725c-1.488,0.568 -3.158,-0.179 -3.726,-1.666c-0.568,-1.488 0.178,-3.157 1.666,-3.725Z" style="fill:#002eff;"/><path id="path2350" d="M395.334,413.304c2.36,-0.901 5.008,0.283 5.91,2.643c0.902,2.36 -0.283,5.009 -2.642,5.91c-2.361,0.902 -5.009,-0.282 -5.911,-2.642c-0.902,-2.361 0.283,-5.009 2.643,-5.911Z" style="fill:#002eff;"/><path id="path2352" d="M279.721,457.865c2.171,-0.83 4.607,0.26 5.436,2.43c0.829,2.171 -0.26,4.607 -2.431,5.436c-2.171,0.83 -4.606,-0.26 -5.436,-2.43c-0.829,-2.171 0.26,-4.607 2.431,-5.436Z" style="fill:#002eff;"/><path id="path2354" d="M511.336,369.761c1.989,-0.759 4.219,0.239 4.979,2.226c0.759,1.989 -0.238,4.219 -2.227,4.979c-1.988,0.76 -4.218,-0.238 -4.978,-2.226c-0.759,-1.988 0.238,-4.219 2.226,-4.979Z" style="fill:#002eff;"/><path id="path2356" d="M193.275,491.977c1.647,-0.629 3.494,0.197 4.124,1.844c0.629,1.647 -0.198,3.495 -1.844,4.124c-1.647,0.629 -3.495,-0.197 -4.124,-1.844c-0.63,-1.647 0.197,-3.495 1.844,-4.124Z" style="fill:#002eff;"/><path id="path2358" d="M424.29,402.301c2.332,-0.892 4.949,0.279 5.84,2.611c0.891,2.333 -0.279,4.95 -2.612,5.841c-2.332,0.891 -4.95,-0.279 -5.841,-2.612c-0.891,-2.332 0.28,-4.949 2.613,-5.84Z" style="fill:#002eff;"/><path id="path2360" d="M308.605,446.675c2.246,-0.857 4.765,0.269 5.623,2.514c0.858,2.246 -0.269,4.766 -2.514,5.624c-2.246,0.857 -4.765,-0.27 -5.623,-2.515c-0.858,-2.245 0.269,-4.765 2.514,-5.623Z" style="fill:#002eff;"/><path id="path2362" d="M540.34,358.886c1.89,-0.722 4.01,0.226 4.732,2.115c0.722,1.89 -0.226,4.01 -2.115,4.732c-1.89,0.722 -4.01,-0.226 -4.732,-2.116c-0.722,-1.889 0.226,-4.009 2.115,-4.731Z" style="fill:#002eff;"/><path id="path2364" d="M222.067,480.544c1.855,-0.709 3.938,0.222 4.647,2.078c0.709,1.856 -0.222,3.939 -2.078,4.648c-1.856,0.709 -3.938,-0.222 -4.647,-2.079c-0.709,-1.855 0.221,-3.938 2.078,-4.647Z" style="fill:#002eff;"/><path id="path2366" d="M453.28,391.389c2.253,-0.861 4.782,0.269 5.643,2.523c0.862,2.254 -0.269,4.783 -2.523,5.644c-2.253,0.861 -4.782,-0.269 -5.643,-2.524c-0.862,-2.253 0.269,-4.782 2.523,-5.643Z" style="fill:#002eff;"/><path id="path2368" d="M337.504,435.524c2.299,-0.878 4.879,0.275 5.757,2.574c0.879,2.299 -0.275,4.878 -2.574,5.757c-2.299,0.878 -4.879,-0.275 -5.757,-2.574c-0.879,-2.299 0.275,-4.879 2.574,-5.757Z" style="fill:#002eff;"/><path id="path2370" d="M569.296,347.884c1.861,-0.71 3.949,0.223 4.659,2.083c0.711,1.861 -0.222,3.948 -2.082,4.659c-1.861,0.71 -3.949,-0.222 -4.66,-2.083c-0.71,-1.86 0.223,-3.948 2.083,-4.659Z" style="fill:#002eff;"/><path id="path2372" d="M91.117,398.163c1.746,-0.666 3.704,0.209 4.37,1.954c0.667,1.746 -0.209,3.703 -1.953,4.37c-1.746,0.667 -3.704,-0.209 -4.37,-1.954c-0.667,-1.745 0.209,-3.703 1.953,-4.37Z" style="fill:#002eff;"/><path id="path2374" d="M322.135,308.496c2.426,-0.926 5.147,0.291 6.074,2.716c0.926,2.426 -0.291,5.147 -2.716,6.073c-2.425,0.927 -5.147,-0.29 -6.073,-2.716c-0.927,-2.425 0.29,-5.146 2.715,-6.073Z" style="fill:#002eff;"/><path id="path2376" d="M206.437,352.834c2.359,-0.901 5.005,0.283 5.906,2.641c0.901,2.359 -0.281,5.006 -2.641,5.907c-2.358,0.901 -5.004,-0.283 -5.905,-2.641c-0.901,-2.359 0.281,-5.006 2.64,-5.907Z" style="fill:#002eff;"/><path id="path2378" d="M437.898,264.326c2.399,-0.917 5.091,0.288 6.008,2.687c0.916,2.399 -0.287,5.092 -2.687,6.008c-2.398,0.917 -5.091,-0.287 -6.007,-2.687c-0.917,-2.399 0.286,-5.091 2.686,-6.008Z" style="fill:#002eff;"/><path id="path2380" d="M119.952,386.844c1.892,-0.723 4.014,0.226 4.737,2.118c0.722,1.891 -0.227,4.014 -2.118,4.736c-1.892,0.723 -4.014,-0.226 -4.737,-2.118c-0.722,-1.891 0.227,-4.013 2.118,-4.736Z" style="fill:#002eff;"/><path id="path2382" d="M351.072,297.443c2.425,-0.927 5.146,0.289 6.073,2.715c0.926,2.425 -0.291,5.146 -2.715,6.072c-2.426,0.927 -5.148,-0.289 -6.074,-2.715c-0.927,-2.425 0.29,-5.146 2.716,-6.072Z" style="fill:#002eff;"/><path id="path2384" d="M235.349,341.716c2.394,-0.915 5.081,0.286 5.996,2.68c0.914,2.394 -0.287,5.081 -2.682,5.995c-2.394,0.915 -5.08,-0.286 -5.995,-2.68c-0.914,-2.394 0.287,-5.08 2.681,-5.995Z" style="fill:#002eff;"/><path id="path2386" d="M466.89,253.418c2.319,-0.886 4.921,0.277 5.807,2.596c0.886,2.319 -0.278,4.92 -2.597,5.806c-2.319,0.886 -4.92,-0.276 -5.806,-2.596c-0.886,-2.318 0.277,-4.92 2.596,-5.806Z" style="fill:#002eff;"/><path id="path2388" d="M148.753,375.433c2.087,-0.798 4.43,0.25 5.228,2.338c0.798,2.088 -0.25,4.431 -2.338,5.229c-2.088,0.797 -4.431,-0.25 -5.229,-2.338c-0.798,-2.088 0.25,-4.432 2.339,-5.229Z" style="fill:#002eff;"/><path id="path2390" d="M380.008,286.387c2.425,-0.926 5.146,0.291 6.073,2.717c0.926,2.425 -0.291,5.146 -2.716,6.072c-2.425,0.927 -5.146,-0.29 -6.073,-2.715c-0.927,-2.426 0.291,-5.147 2.716,-6.074Z" style="fill:#002eff;"/><path id="path2392" d="M264.269,330.62c2.418,-0.924 5.129,0.289 6.053,2.707c0.923,2.416 -0.29,5.128 -2.707,6.051c-2.417,0.924 -5.128,-0.289 -6.052,-2.706c-0.923,-2.417 0.29,-5.129 2.706,-6.052Z" style="fill:#002eff;"/><path id="path2394" d="M495.899,242.555c2.214,-0.846 4.697,0.265 5.542,2.479c0.846,2.212 -0.265,4.695 -2.478,5.54c-2.213,0.846 -4.696,-0.265 -5.542,-2.477c-0.845,-2.214 0.266,-4.697 2.478,-5.542Z" style="fill:#002eff;"/><path id="path2396" d="M177.567,364.061c2.263,-0.865 4.803,0.271 5.668,2.534c0.865,2.264 -0.27,4.804 -2.534,5.669c-2.264,0.865 -4.804,-0.272 -5.668,-2.535c-0.865,-2.264 0.27,-4.804 2.534,-5.668Z" style="fill:#002eff;"/><path id="path2398" d="M408.945,275.334c2.424,-0.926 5.145,0.29 6.071,2.715c0.926,2.425 -0.289,5.146 -2.715,6.073c-2.424,0.926 -5.145,-0.291 -6.071,-2.715c-0.927,-2.426 0.289,-5.147 2.715,-6.073Z" style="fill:#002eff;"/><path id="path2400" d="M293.199,319.551c2.426,-0.927 5.147,0.29 6.074,2.715c0.926,2.426 -0.291,5.147 -2.716,6.073c-2.425,0.927 -5.146,-0.29 -6.073,-2.715c-0.926,-2.426 0.291,-5.147 2.715,-6.073Z" style="fill:#002eff;"/><path id="path2402" d="M524.898,231.665c2.123,-0.811 4.504,0.254 5.315,2.376c0.811,2.123 -0.254,4.504 -2.376,5.315c-2.123,0.811 -4.505,-0.254 -5.315,-2.376c-0.811,-2.123 0.254,-4.504 2.376,-5.315Z" style="fill:#002eff;"/><path id="path2404" d="M46.894,282.401c1.755,-0.67 3.723,0.21 4.394,1.965c0.67,1.755 -0.21,3.723 -1.965,4.394c-1.755,0.67 -3.724,-0.21 -4.394,-1.965c-0.67,-1.754 0.21,-3.724 1.965,-4.394Z" style="fill:#002eff;"/><path id="path2406" d="M277.951,192.837c2.378,-0.908 5.046,0.285 5.955,2.664c0.908,2.377 -0.285,5.045 -2.662,5.954c-2.379,0.908 -5.047,-0.285 -5.955,-2.663c-0.909,-2.378 0.285,-5.046 2.662,-5.955Z" style="fill:#002eff;"/><path id="path2408" d="M162.28,237.246c2.272,-0.868 4.822,0.272 5.69,2.545c0.868,2.272 -0.272,4.821 -2.544,5.689c-2.272,0.869 -4.822,-0.272 -5.69,-2.544c-0.868,-2.272 0.271,-4.822 2.544,-5.69Z" style="fill:#002eff;"/><path id="path2410" d="M393.816,148.936c2.204,-0.842 4.677,0.264 5.518,2.468c0.842,2.203 -0.263,4.676 -2.467,5.518c-2.203,0.842 -4.676,-0.264 -5.518,-2.467c-0.842,-2.205 0.263,-4.678 2.467,-5.519Z" style="fill:#002eff;"/><path id="path2412" d="M75.767,271.183c1.846,-0.705 3.916,0.221 4.621,2.066c0.705,1.845 -0.221,3.916 -2.066,4.621c-1.846,0.705 -3.916,-0.221 -4.621,-2.066c-0.705,-1.846 0.221,-3.916 2.066,-4.621Z" style="fill:#002eff;"/><path id="path2414" d="M306.9,181.818c2.36,-0.901 5.006,0.283 5.907,2.641c0.901,2.359 -0.282,5.006 -2.641,5.907c-2.359,0.901 -5.006,-0.283 -5.907,-2.641c-0.901,-2.359 0.283,-5.006 2.641,-5.907Z" style="fill:#002eff;"/><path id="path2416" d="M191.164,226.056c2.347,-0.897 4.981,0.281 5.877,2.628c0.897,2.348 -0.28,4.981 -2.628,5.878c-2.346,0.897 -4.98,-0.281 -5.877,-2.628c-0.896,-2.348 0.281,-4.981 2.628,-5.878Z" style="fill:#002eff;"/><path id="path2418" d="M422.825,138.072c2.098,-0.802 4.454,0.251 5.256,2.35c0.802,2.099 -0.251,4.454 -2.351,5.256c-2.098,0.802 -4.453,-0.252 -5.255,-2.35c-0.802,-2.099 0.251,-4.455 2.35,-5.256Z" style="fill:#002eff;"/><path id="path2420" d="M104.601,259.861c1.993,-0.762 4.229,0.239 4.991,2.231c0.761,1.994 -0.239,4.23 -2.232,4.992c-1.993,0.761 -4.23,-0.239 -4.991,-2.232c-0.762,-1.994 0.239,-4.23 2.232,-4.991Z" style="fill:#002eff;"/><path id="path2422" d="M335.857,170.817c2.329,-0.89 4.943,0.279 5.833,2.608c0.89,2.33 -0.279,4.944 -2.608,5.834c-2.33,0.89 -4.944,-0.279 -5.834,-2.609c-0.89,-2.329 0.279,-4.943 2.609,-5.833Z" style="fill:#002eff;"/><path id="path2424" d="M220.073,214.932c2.387,-0.912 5.064,0.286 5.975,2.671c0.912,2.387 -0.285,5.064 -2.672,5.975c-2.385,0.912 -5.062,-0.286 -5.974,-2.672c-0.911,-2.386 0.286,-5.063 2.671,-5.974Z" style="fill:#002eff;"/><path id="path2426" d="M451.826,127.188c2.005,-0.766 4.255,0.24 5.021,2.245c0.766,2.005 -0.24,4.254 -2.246,5.02c-2.004,0.766 -4.254,-0.24 -5.019,-2.245c-0.766,-2.005 0.24,-4.254 2.244,-5.02Z" style="fill:#002eff;"/><path id="path2428" d="M133.427,248.517c2.152,-0.822 4.568,0.257 5.39,2.411c0.823,2.152 -0.258,4.568 -2.41,5.39c-2.153,0.822 -4.569,-0.257 -5.392,-2.41c-0.822,-2.153 0.258,-4.568 2.412,-5.391Z" style="fill:#002eff;"/><path id="path2430" d="M364.824,159.842c2.285,-0.873 4.849,0.273 5.723,2.559c0.873,2.286 -0.273,4.85 -2.559,5.723c-2.285,0.874 -4.851,-0.273 -5.724,-2.559c-0.873,-2.285 0.274,-4.849 2.56,-5.723Z" style="fill:#002eff;"/><path id="path2432" d="M249.007,203.871c2.39,-0.913 5.071,0.285 5.984,2.676c0.913,2.389 -0.286,5.07 -2.675,5.983c-2.39,0.913 -5.072,-0.285 -5.985,-2.676c-0.913,-2.389 0.287,-5.07 2.676,-5.983Z" style="fill:#002eff;"/><path id="path2434" d="M480.799,116.232c1.952,-0.745 4.141,0.233 4.886,2.184c0.745,1.95 -0.234,4.139 -2.184,4.885c-1.951,0.745 -4.14,-0.233 -4.886,-2.185c-0.745,-1.95 0.234,-4.14 2.184,-4.884Z" style="fill:#002eff;"/><path id="path2436" d="M2.503,166.202c2.006,-0.766 4.256,0.24 5.023,2.246c0.766,2.006 -0.241,4.256 -2.246,5.023c-2.006,0.766 -4.257,-0.241 -5.023,-2.246c-0.766,-2.006 0.24,-4.257 2.246,-5.023Z" style="fill:#002eff;"/><path id="path2438" d="M233.99,77.765c2.008,-0.767 4.261,0.24 5.028,2.247c0.766,2.008 -0.241,4.261 -2.248,5.027c-2.008,0.767 -4.26,-0.24 -5.027,-2.248c-0.767,-2.007 0.24,-4.259 2.247,-5.026Z" style="fill:#002eff;"/><path id="path2440" d="M118.331,122.203c1.885,-0.72 4,0.226 4.72,2.111c0.72,1.886 -0.225,4.001 -2.111,4.721c-1.884,0.72 -4,-0.226 -4.72,-2.111c-0.72,-1.885 0.225,-4 2.111,-4.721Z" style="fill:#002eff;"/><path id="path2442" d="M349.727,33.525c2.019,-0.771 4.285,0.242 5.057,2.262c0.771,2.02 -0.242,4.286 -2.262,5.057c-2.019,0.772 -4.285,-0.242 -5.056,-2.262c-0.772,-2.019 0.241,-4.285 2.261,-5.057Z" style="fill:#002eff;"/><path id="path2444" d="M31.49,155.283c1.932,-0.738 4.099,0.231 4.836,2.162c0.738,1.931 -0.231,4.099 -2.162,4.836c-1.931,0.737 -4.098,-0.231 -4.836,-2.163c-0.738,-1.93 0.231,-4.097 2.162,-4.835Z" style="fill:#002eff;"/><path id="path2446" d="M262.915,66.68c2.024,-0.773 4.295,0.242 5.068,2.267c0.774,2.023 -0.242,4.294 -2.266,5.068c-2.024,0.773 -4.295,-0.242 -5.068,-2.267c-0.774,-2.023 0.242,-4.294 2.266,-5.068Z" style="fill:#002eff;"/><path id="path2448" d="M147.252,111.11c1.906,-0.729 4.046,0.227 4.774,2.135c0.729,1.906 -0.227,4.046 -2.135,4.774c-1.906,0.729 -4.046,-0.227 -4.774,-2.135c-0.729,-1.906 0.228,-4.046 2.135,-4.774Z" style="fill:#002eff;"/><path id="path2450" d="M378.667,22.483c2.013,-0.769 4.272,0.24 5.041,2.254c0.769,2.013 -0.241,4.271 -2.254,5.04c-2.013,0.77 -4.272,-0.24 -5.041,-2.253c-0.769,-2.013 0.241,-4.272 2.254,-5.041Z" style="fill:#002eff;"/><path id="path2452" d="M60.455,144.304c1.89,-0.721 4.009,0.227 4.731,2.116c0.722,1.889 -0.226,4.008 -2.115,4.73c-1.889,0.722 -4.009,-0.226 -4.731,-2.115c-0.721,-1.889 0.227,-4.009 2.115,-4.731Z" style="fill:#002eff;"/><path id="path2454" d="M291.846,55.61c2.032,-0.777 4.313,0.243 5.089,2.276c0.777,2.033 -0.243,4.314 -2.276,5.09c-2.033,0.777 -4.314,-0.243 -5.09,-2.276c-0.777,-2.033 0.243,-4.314 2.277,-5.09Z" style="fill:#002eff;"/><path id="path2456" d="M176.164,99.993c1.941,-0.742 4.12,0.233 4.861,2.174c0.742,1.941 -0.232,4.119 -2.174,4.86c-1.94,0.742 -4.118,-0.232 -4.86,-2.173c-0.741,-1.942 0.233,-4.119 2.173,-4.861Z" style="fill:#002eff;"/><path id="path2458" d="M407.593,11.402c2.028,-0.775 4.303,0.243 5.078,2.27c0.774,2.028 -0.243,4.303 -2.271,5.078c-2.027,0.774 -4.302,-0.243 -5.077,-2.27c-0.774,-2.028 0.243,-4.303 2.27,-5.078Z" style="fill:#002eff;"/><path id="path2460" d="M89.401,133.273c1.876,-0.717 3.981,0.225 4.698,2.101c0.717,1.877 -0.225,3.982 -2.101,4.699c-1.877,0.717 -3.982,-0.225 -4.699,-2.101c-0.717,-1.877 0.225,-3.982 2.102,-4.699Z" style="fill:#002eff;"/><path id="path2462" d="M320.782,44.558c2.032,-0.776 4.311,0.243 5.087,2.274c0.776,2.032 -0.243,4.312 -2.274,5.088c-2.033,0.776 -4.312,-0.244 -5.088,-2.275c-0.776,-2.032 0.243,-4.311 2.275,-5.087Z" style="fill:#002eff;"/><path id="path2464" d="M205.075,88.873c1.978,-0.756 4.197,0.237 4.953,2.214c0.755,1.978 -0.237,4.197 -2.215,4.953c-1.978,0.755 -4.197,-0.237 -4.952,-2.215c-0.756,-1.978 0.237,-4.197 2.214,-4.952Z" style="fill:#002eff;"/><path id="path2466" d="M436.498,0.265c2.073,-0.792 4.399,0.249 5.191,2.322c0.792,2.073 -0.248,4.399 -2.322,5.191c-2.072,0.792 -4.398,-0.248 -5.19,-2.321c-0.792,-2.074 0.248,-4.4 2.321,-5.192Z" style="fill:#002eff;"/></g></g></g><path d="M274.172,154.722c71.057,16.102 33.918,-153.496 162.256,-126.912c128.339,26.585 135.673,157.723 128.339,247.51c-7.334,89.787 -26.585,237.698 -158.59,248.436c-132.005,10.737 -112.754,-84.687 -242.926,-126.73c-130.172,-42.043 -164.09,-132.667 -130.172,-206.482c33.918,-73.814 137.505,-59.147 241.093,-35.822" style="fill:url(#_Linear1);"/><clipPath id="_clip2"><path d="M274.172,154.722c71.057,16.102 33.918,-153.496 162.256,-126.912c128.339,26.585 135.673,157.723 128.339,247.51c-7.334,89.787 -26.585,237.698 -158.59,248.436c-132.005,10.737 -112.754,-84.687 -242.926,-126.73c-130.172,-42.043 -164.09,-132.667 -130.172,-206.482c33.918,-73.814 137.505,-59.147 241.093,-35.822"/></clipPath><g clip-path="url(#_clip2)"><path d="M374.188,17.281c0,0 110.744,16.639 151.641,91.495c40.896,74.855 67.873,210.21 67.873,210.21l12.23,-201.436l-80.103,-124.677l-151.641,24.408" style="fill-opacity:0.24;"/><path d="M230.17,442.044c-0,0 13.974,-25.126 -28.881,-48.879c-24.995,-13.853 -66.77,-22.11 -122.759,-64.055c-68.266,-51.143 -67.874,-188.771 -67.874,-188.771l-12.23,201.436l80.104,124.677l151.64,-24.408" style="fill-opacity:0.24;"/></g><path d="M385.509,67.237l-8.871,0c-1.352,0 -2.45,1.098 -2.45,2.45c0,1.352 1.098,2.45 2.45,2.45l8.871,-0l-0,8.87c-0,1.352 1.097,2.45 2.449,2.45c1.353,0 2.45,-1.098 2.45,-2.45l0,-8.87l8.871,-0c1.352,-0 2.45,-1.098 2.45,-2.45c-0,-1.352 -1.098,-2.45 -2.45,-2.45l-8.871,0l0,-8.87c0,-1.352 -1.097,-2.45 -2.45,-2.45c-1.352,-0 -2.449,1.098 -2.449,2.45l-0,8.87Z" style="fill:#fff;"/><path d="M48.155,233.688l-8.871,0c-1.352,0 -2.45,1.098 -2.45,2.45c0,1.352 1.098,2.45 2.45,2.45l8.871,0l-0,8.871c-0,1.352 1.097,2.449 2.45,2.449c1.352,0 2.449,-1.097 2.449,-2.449l0,-8.871l8.871,0c1.352,0 2.45,-1.098 2.45,-2.45c-0,-1.352 -1.098,-2.45 -2.45,-2.45l-8.871,0l0,-8.87c0,-1.352 -1.097,-2.45 -2.449,-2.45c-1.353,0 -2.45,1.098 -2.45,2.45l-0,8.87Z" style="fill:#fff;"/><circle cx="115.387" cy="149.312" r="64.782" style="fill:url(#_Linear3);"/><g><circle cx="340.516" cy="385.573" r="6.248" style="fill:#fff;"/><circle cx="340.516" cy="419.853" r="6.248" style="fill:#fff;"/><circle cx="340.516" cy="454.133" r="6.248" style="fill:#fff;"/><circle cx="381.325" cy="385.573" r="6.248" style="fill:#fff;"/><circle cx="381.325" cy="419.853" r="6.248" style="fill:#fff;"/><circle cx="381.325" cy="454.133" r="6.248" style="fill:#fff;"/><circle cx="422.133" cy="385.573" r="6.248" style="fill:#fff;"/><circle cx="422.133" cy="419.853" r="6.248" style="fill:#fff;"/><circle cx="422.133" cy="454.133" r="6.248" style="fill:#fff;"/><circle cx="462.941" cy="385.573" r="6.248" style="fill:#fff;"/><circle cx="462.941" cy="419.853" r="6.248" style="fill:#fff;"/><circle cx="462.941" cy="454.133" r="6.248" style="fill:#fff;"/></g><g><g><text x="381.741px" y="311.244px" style="font-family:'Arial-BoldMT', 'Arial', sans-serif;font-weight:700;font-size:35.119px;fill:#fff;">Developer</text><text x="204.194px" y="311.244px" style="font-family:'Arial-BoldMT', 'Arial', sans-serif;font-weight:700;font-size:35.119px;fill:url(#_Linear4);">Front-End</text></g><g><text x="103.183px" y="217.217px" style="font-family:'Arial-BoldMT', 'Arial', sans-serif;font-weight:700;font-size:49.693px;fill:#fff;">Hello</text><path d="M230.812,208.046l-1.772,-18.052l0,-8.347l7.377,-0l-0,8.347l-1.747,18.052l-3.858,0Zm-1.481,9.172l0,-6.818l6.819,-0l-0,6.818l-6.819,0Z" style="fill:url(#_Linear5);fill-rule:nonzero;"/></g><text x="140.239px" y="261.055px" style="font-family:'Arial-BoldMT', 'Arial', sans-serif;font-weight:700;font-size:34.878px;fill:#fff;">I&apos;m Oskar Dbrowski</text></g></g><defs><linearGradient id="_Linear1" x1="0" y1="0" x2="1" y2="0" gradientUnits="userSpaceOnUse" gradientTransform="matrix(392.401,-462.54,462.54,392.401,201.301,516.645)"><stop offset="0" style="stop-color:#0071ff;stop-opacity:1"/><stop offset="1" style="stop-color:#2bff8e;stop-opacity:1"/></linearGradient><linearGradient id="_Linear3" x1="0" y1="0" x2="1" y2="0" gradientUnits="userSpaceOnUse" gradientTransform="matrix(97.5522,-136.419,136.419,97.5522,65.3543,214.095)"><stop offset="0" style="stop-color:#fff;stop-opacity:0.24"/><stop offset="1" style="stop-color:#fff;stop-opacity:0"/></linearGradient><linearGradient id="_Linear4" x1="0" y1="0" x2="1" y2="0" gradientUnits="userSpaceOnUse" gradientTransform="matrix(167.742,-39.2346,1.00112,4.28014,204.194,318.686)"><stop offset="0" style="stop-color:#0062ff;stop-opacity:1"/><stop offset="1" style="stop-color:#ff00ac;stop-opacity:1"/></linearGradient><linearGradient id="_Linear5" x1="0" y1="0" x2="1" y2="0" gradientUnits="userSpaceOnUse" gradientTransform="matrix(7.08517,-35.5714,35.5714,7.08517,229.331,217.218)"><stop offset="0" style="stop-color:#0041ff;stop-opacity:1"/><stop offset="1" style="stop-color:#ff00ac;stop-opacity:1"/></linearGradient></defs></svg>